<?xml version="1.0" encoding="UTF-8" standalone="no"?>
<svg
   width="2.47in"
   height="0.553333in"
   viewBox="0 0 741 166"
   version="1.1"
   id="svg26"
   sodipodi:docname="title-logo-draft.svg"
   inkscape:version="1.1.1 (3bf5ae0d25, 2021-09-20, custom)"
   xmlns:inkscape="http://www.inkscape.org/namespaces/inkscape"
   xmlns:sodipodi="http://sodipodi.sourceforge.net/DTD/sodipodi-0.dtd"
   xmlns="http://www.w3.org/2000/svg"
   xmlns:svg="http://www.w3.org/2000/svg">
  <defs
     id="defs30">
    <inkscape:path-effect
       effect="fillet_chamfer"
       id="path-effect12583"
       is_visible="true"
       lpeversion="1"
       satellites_param="F,0,0,1,0,2.0833333,0,1 @ F,0,0,1,0,2.0833333,0,1 @ F,0,0,1,0,2.0833333,0,1 @ F,0,0,1,0,2.0833333,0,1 @ F,0,0,1,0,2.0833333,0,1 @ F,0,0,1,0,2.0833333,0,1 @ F,0,0,1,0,2.0833333,0,1 @ F,0,0,1,0,2.0833333,0,1 @ F,0,0,1,0,2.0833333,0,1 @ F,0,0,1,0,2.0833333,0,1 @ F,0,0,1,0,2.0833333,0,1 | F,0,0,1,0,2.0833333,0,1 @ F,0,0,1,0,2.0833333,0,1 @ F,0,0,1,0,2.0833333,0,1 @ F,0,0,1,0,2.0833333,0,1 @ F,0,0,1,0,2.0833333,0,1 @ F,0,0,1,0,2.0833333,0,1 @ F,0,0,1,0,2.0833333,0,1 @ F,0,0,1,0,2.0833333,0,1 | F,0,0,1,0,2.0833333,0,1 @ F,0,0,1,0,2.0833333,0,1 @ F,0,0,1,0,2.0833333,0,1 @ F,0,0,1,0,2.0833333,0,1 @ F,0,0,1,0,2.0833333,0,1 @ F,0,0,1,0,2.0833333,0,1 @ F,0,0,1,0,2.0833333,0,1 @ F,0,0,1,0,2.0833333,0,1 @ F,0,0,1,0,2.0833333,0,1 @ F,0,0,1,0,2.0833333,0,1 @ F,0,0,1,0,2.0833333,0,1 @ F,0,0,1,0,2.0833333,0,1 | F,0,0,1,0,2.0833333,0,1 @ F,0,0,1,0,2.0833333,0,1 @ F,0,0,1,0,2.0833333,0,1 @ F,0,0,1,0,2.0833333,0,1 @ F,0,0,1,0,2.0833333,0,1 @ F,0,0,1,0,2.0833333,0,1 @ F,0,0,1,0,2.0833333,0,1 @ F,0,0,1,0,2.0833333,0,1 | F,0,0,1,0,2.0833333,0,1 @ F,0,0,1,0,2.0833333,0,1 @ F,0,0,1,0,2.0833333,0,1 @ F,0,0,1,0,2.0833333,0,1 | F,0,0,1,0,2.0833333,0,1 @ F,0,0,1,0,2.0833333,0,1 @ F,0,0,1,0,2.0833333,0,1 @ F,0,0,1,0,2.0833333,0,1 @ F,0,0,1,0,2.0833333,0,1 @ F,0,0,1,0,2.0833333,0,1 @ F,0,0,1,0,2.0833333,0,1 @ F,0,0,1,0,2.0833333,0,1 @ F,0,0,1,0,2.0833333,0,1 @ F,0,0,1,0,2.0833333,0,1 @ F,0,0,1,0,2.0833333,0,1 @ F,0,0,1,0,2.0833333,0,1 @ F,0,0,1,0,2.0833333,0,1 @ F,0,0,1,0,2.0833333,0,1 @ F,0,0,1,0,2.0833333,0,1 @ F,0,0,1,0,2.0833333,0,1 | F,0,0,1,0,2.0833333,0,1 @ F,0,0,1,0,2.0833333,0,1 @ F,0,0,1,0,2.0833333,0,1 @ F,0,0,1,0,2.0833333,0,1 @ F,0,0,1,0,2.0833333,0,1"
       unit="px"
       method="auto"
       mode="F"
       radius="200"
       chamfer_steps="1"
       flexible="false"
       use_knot_distance="true"
       apply_no_radius="true"
       apply_with_radius="true"
       only_selected="false"
       hide_knots="false" />
    <inkscape:path-effect
       effect="fillet_chamfer"
       id="path-effect11631"
       is_visible="true"
       lpeversion="1"
       satellites_param="F,0,0,1,0,3.125,0,1 @ F,0,0,1,0,3.125,0,1 @ F,0,0,1,0,3.125,0,1 @ F,0,0,1,0,3.125,0,1 @ F,0,0,1,0,3.125,0,1 @ F,0,0,1,0,3.125,0,1 @ F,0,0,1,0,3.125,0,1 @ F,0,0,1,0,3.125,0,1 @ F,0,0,1,0,3.125,0,1 @ F,0,0,1,0,3.125,0,1 @ F,0,0,1,0,3.125,0,1 | F,0,0,1,0,3.125,0,1 @ F,0,0,1,0,3.125,0,1 @ F,0,0,1,0,3.125,0,1 @ F,0,0,1,0,3.125,0,1 @ F,0,0,1,0,3.125,0,1 @ F,0,0,1,0,3.125,0,1 @ F,0,0,1,0,3.125,0,1 @ F,0,0,1,0,3.125,0,1 | F,0,0,1,0,3.125,0,1 @ F,0,0,1,0,3.125,0,1 @ F,0,0,1,0,3.125,0,1 @ F,0,0,1,0,3.125,0,1 @ F,0,0,1,0,3.125,0,1 @ F,0,0,1,0,3.125,0,1 @ F,0,0,1,0,3.125,0,1 @ F,0,0,1,0,3.125,0,1 @ F,0,0,1,0,3.125,0,1 @ F,0,0,1,0,3.125,0,1 @ F,0,0,1,0,3.125,0,1 @ F,0,0,1,0,3.125,0,1 | F,0,0,1,0,3.125,0,1 @ F,0,0,1,0,3.125,0,1 @ F,0,0,1,0,3.125,0,1 @ F,0,0,1,0,3.125,0,1 @ F,0,0,1,0,3.125,0,1 @ F,0,0,1,0,3.125,0,1 @ F,0,0,1,0,3.125,0,1 @ F,0,0,1,0,3.125,0,1 | F,0,0,1,0,3.125,0,1 @ F,0,0,1,0,3.125,0,1 @ F,0,0,1,0,3.125,0,1 @ F,0,0,1,0,3.125,0,1 | F,0,0,1,0,3.125,0,1 @ F,0,0,1,0,3.125,0,1 @ F,0,0,1,0,3.125,0,1 @ F,0,0,1,0,3.125,0,1 @ F,0,0,1,0,3.125,0,1 @ F,0,0,1,0,3.125,0,1 @ F,0,0,1,0,3.125,0,1 @ F,0,0,1,0,3.125,0,1 @ F,0,0,1,0,3.125,0,1 @ F,0,0,1,0,3.125,0,1 @ F,0,0,1,0,3.125,0,1 @ F,0,0,1,0,3.125,0,1 @ F,0,0,1,0,3.125,0,1 @ F,0,0,1,0,3.125,0,1 @ F,0,0,1,0,3.125,0,1 @ F,0,0,1,0,3.125,0,1 | F,0,0,1,0,3.125,0,1 @ F,0,0,1,0,3.125,0,1 @ F,0,0,1,0,3.125,0,1 @ F,0,0,1,0,3.125,0,1 @ F,0,0,1,0,3.125,0,1"
       unit="px"
       method="auto"
       mode="F"
       radius="300"
       chamfer_steps="1"
       flexible="false"
       use_knot_distance="true"
       apply_no_radius="true"
       apply_with_radius="true"
       only_selected="false"
       hide_knots="false" />
  </defs>
  <sodipodi:namedview
     id="namedview28"
     pagecolor="#505050"
     bordercolor="#eeeeee"
     borderopacity="1"
     inkscape:pageshadow="0"
     inkscape:pageopacity="0"
     inkscape:pagecheckerboard="0"
     inkscape:document-units="in"
     showgrid="false"
     inkscape:zoom="4"
     inkscape:cx="105"
     inkscape:cy="15"
     inkscape:window-width="1920"
     inkscape:window-height="1018"
     inkscape:window-x="0"
     inkscape:window-y="30"
     inkscape:window-maximized="1"
     inkscape:current-layer="svg26" />
  <path
     id="名前なし"
     d="m 138.19138,1.8954278 c -3.12597,0.024105 -5.86317,0.054996 -7.62778,0.076938 -1.1505,0.014306 -2.08313,0.9603739 -2.08313,2.1109671 V 46.63737 a 2.0833333,2.0833333 45 0 0 2.08333,2.083333 l 7.62753,0 a 2.0833333,2.0833333 135 0 0 2.08333,-2.083333 V 27.124349 a 2.0833333,2.0833333 135 0 1 2.08333,-2.083333 h 1.79891 a 3.092588,3.092588 33.966324 0 1 2.86603,1.930714 l 8.03421,19.818259 a 3.092588,3.092588 33.966324 0 0 2.86603,1.930714 h 10.23373 a 1.287571,1.287571 121.71748 0 0 1.15164,-1.86339 l -9.97646,-19.952907 c -0.51456,-1.029122 -0.0135,-2.066146 1.04367,-2.516413 2.3661,-1.007798 6.13121,-3.403134 7.08659,-8.639411 0.20622,-1.130248 0.27239,-3.008224 0.12271,-4.147741 -0.82739,-6.2990683 -6.47691,-8.4972339 -10.01069,-9.2631085 -1.12398,-0.2435997 -2.98565,-0.4040436 -4.13574,-0.4292847 -2.56228,-0.056235 -6.87605,-0.058395 -11.08261,-0.038939 -1.1495,0.00532 -3.01407,0.017047 -4.16463,0.025919 z M 4.9246437,3.5381601 13.954263,13.422778 a 4.7248626,4.7248626 23.794118 0 0 3.488445,1.53816 h 9.632368 a 2.0833333,2.0833333 45 0 1 2.083333,2.083333 V 46.63737 a 2.0833333,2.0833333 45 0 0 2.083333,2.083333 H 42.076823 A 2.0833333,2.0833333 135 0 0 44.160156,46.63737 V 17.044271 a 2.0833333,2.0833333 135 0 1 2.083333,-2.083333 l 6.794539,0 a 2.0833333,2.0833333 135 0 0 2.083333,-2.083333 l 0,-8.7942717 A 2.0833333,2.0833333 45 0 0 53.038028,2 H 5.6028645 A 0.91860399,0.91860399 113.79412 0 0 4.9246437,3.5381601 Z M 60.320312,4.0833333 V 46.63737 a 2.0833333,2.0833333 45 0 0 2.083333,2.083333 h 28.632163 a 0.85673346,0.85673346 112.35404 0 0 0.602707,-1.465614 L 85.160314,40.842567 A 5.066077,5.066077 22.354036 0 0 81.596355,39.376953 H 73.510126 A 2.0833333,2.0833333 45 0 1 71.426793,37.29362 v -5.179037 a 2.0833333,2.0833333 135 0 1 2.083333,-2.083333 h 9.625656 a 2.0833333,2.0833333 135 0 0 2.083333,-2.083333 l 0,-5.177084 A 2.0833333,2.0833333 45 0 0 83.135782,20.6875 h -9.625656 a 2.0833333,2.0833333 45 0 1 -2.083333,-2.083333 v -5.177084 a 2.0833333,2.0833333 135 0 1 2.083333,-2.083333 h 9.625656 a 2.0833333,2.0833333 135 0 0 2.083333,-2.0833333 l 0,-5.1770834 A 2.0833333,2.0833333 45 0 0 83.135782,2 H 62.403645 a 2.0833333,2.0833333 135 0 0 -2.083333,2.0833333 z m 30.400391,0 v 8.7942717 a 2.0833333,2.0833333 45 0 0 2.083333,2.083333 h 7.495424 a 2.0833333,2.0833333 45 0 1 2.08333,2.083333 V 46.63737 a 2.0833333,2.0833333 45 0 0 2.08333,2.083333 h 8.06576 a 2.0833333,2.0833333 135 0 0 2.08333,-2.083333 V 17.044271 a 2.0833333,2.0833333 135 0 1 2.08333,-2.083333 h 6.1366 a 2.0833333,2.0833333 135 0 0 2.08333,-2.083333 V 4.0833333 A 2.0833333,2.0833333 45 0 0 122.83514,2 H 92.804036 a 2.0833333,2.0833333 135 0 0 -2.083333,2.0833333 z m 82.150387,0 V 46.63737 a 2.0833333,2.0833333 45 0 0 2.08333,2.083333 h 10.12827 a 2.0833333,2.0833333 135 0 0 2.08333,-2.083333 V 4.0833333 A 2.0833333,2.0833333 45 0 0 185.08269,2 h -10.12827 a 2.0833333,2.0833333 135 0 0 -2.08333,2.0833333 z m 25.37858,-1.8865 c -5.06135,1.008415 -7.46765,5.7406529 -7.98243,10.6844277 -0.11911,1.143911 -0.12153,3.016439 0.0154,4.158169 0.68678,5.726707 4.13352,9.484014 7.06106,10.743613 1.04983,0.451698 2.94843,0.468266 4.09902,0.468266 h 5.22201 c 1.15059,0 3.02062,0.0048 4.15809,0.172977 1.06994,0.158182 2.32757,0.460946 3.1891,1.040376 0.91384,0.614607 1.05665,2.74227 0.38848,3.654632 -0.77774,1.061962 -2.16465,1.742055 -3.58796,2.075509 -1.11783,0.261888 -2.99712,0.24465 -4.14771,0.24465 h -14.42123 a 2.0833333,2.0833333 135 0 0 -2.08333,2.083333 v 9.114584 c 0,1.150593 0.93265,2.096281 2.08315,2.110626 4.41964,0.05511 14.69236,0.167745 19.11894,0.08631 1.14873,-0.02113 2.99673,-0.267458 4.1269,-0.479783 4.10454,-0.771118 12.98079,-3.212708 14.14397,-12.43669 0.14386,-1.140737 0.13997,-3.013469 0.0284,-4.158185 -0.77004,-7.899878 -5.88191,-10.944167 -8.78149,-12.045392 -1.07407,-0.407918 -2.9319,-0.57536 -4.08249,-0.57536 h -5.96615 c -1.15059,0 -3.02311,-0.01369 -4.15141,-0.232811 -1.15177,-0.223684 -2.51741,-0.66168 -3.35088,-1.51868 -0.78116,-0.803223 -0.79854,-2.949149 -0.0372,-3.774217 0.82875,-0.898068 2.21616,-1.330826 3.38448,-1.539232 1.13124,-0.20179 3.00438,-0.193098 4.15497,-0.193098 h 9.92709 a 3.8961572,3.8961572 151.86592 0 0 3.24022,-1.732595 l 4.28387,-6.4156689 A 1.1139894,1.1139894 61.86592 0 0 227.35612,2 h -24.95248 c -1.15059,0 -3.02737,-0.027627 -4.15397,0.1968333 z m -46.50562,8.7263817 c 1.25249,0.161682 2.47262,0.519216 3.22524,1.259878 0.79737,0.784707 0.80073,2.972563 0.007,3.761253 -0.76281,0.757659 -2.00394,1.106261 -3.23168,1.260995 -1.14077,0.143772 -3.01142,0.115623 -4.16201,0.115623 h -5.22429 a 2.0833333,2.0833333 45 0 1 -2.08333,-2.083333 v -2.351352 a 2.0833333,2.0833333 135 0 1 2.08333,-2.083333 h 5.22429 c 1.15059,0 3.02142,-0.02694 4.16177,0.120269 z"
     transform="scale(3.1250011)"
     sodipodi:nodetypes="sccccccccsssccccccccccccccccccccccccccccccccccccsssccsccssccscccssssccs"
     style="fill:#000080;stroke:#f2f2f2;stroke-linejoin:round"
     inkscape:path-effect="#path-effect12583"
     inkscape:original-d="M 140.27466,1.8808594 C 133.87466,1.9208594 128.48047,2 128.48047,2 v 46.720703 h 11.79419 V 25.041016 h 5.96557 l 9.59961,23.679687 h 14.40039 L 158.40039,25.041016 c 0,0 8.9593,-1.761332 9.2793,-11.361328 C 167.99969,4.0796908 158.39953,2.3199999 155.51953,2 154.07953,1.8400001 146.67466,1.8408594 140.27466,1.8808594 Z M 3.5195312,2 15.359375,14.960938 l 13.799034,0 V 48.720703 H 44.160156 V 14.960938 H 55.121361 V 2 Z M 60.320312,2 v 46.720703 h 32.798829 l -9.439453,-9.34375 H 71.426793 V 30.03125 H 85.219115 V 20.6875 H 71.426793 V 11.34375 H 85.219115 V 2 Z m 30.400391,0 v 12.960938 h 11.662087 v 33.759765 h 12.23242 V 14.960938 h 10.30326 V 2 Z m 82.150387,0 v 46.720703 h 14.29493 V 2 Z m 27.44922,0 c -7.29199,0 -10.16015,6.7057131 -10.16015,12.960938 0,8.415178 5.82892,13.290371 9.19922,13.290371 h 9.38867 c 0,0 6.29108,0.02521 6.29101,2.922519 0,2.938757 -3.64152,4.265625 -6.29101,4.265625 h -18.58789 v 13.28125 c 0,0 22.63929,0.32 23.27929,0 0.64,-0.32 16.32032,-1.087418 16.32032,-14.880859 0,-13.02356 -10.87891,-14.700947 -10.87891,-14.700947 h -10.13281 c 0,0 -6.1875,-0.07789 -6.1875,-3.629019 0,-3.697314 6.1875,-3.629019 6.1875,-3.629019 H 222.8418 L 229.43945,2 Z m -50.6547,8.802946 c 2.51764,0 6.06074,0.430937 6.06074,3.259009 0,2.940829 -3.77558,3.259009 -6.06074,3.259009 h -9.39095 v -6.518018 z" />
  <path
     id="path14296"
     style="fill:#800000;stroke:#f9f9f9;stroke-width:2.51247px;stroke-linecap:butt;stroke-linejoin:miter;stroke-opacity:1"
     d="M 148.45398,12.760422 35.973051,133.24605 H 77.099672 L 107.3523,100.2537 h 41.81747 v 32.99235 h 32.12067 V 12.760422 Z m 0.71579,43.750466 v 26.831754 h -25.31694 z"
     sodipodi:nodetypes="ccccccccccccc" />
  <path
     style="fill:#800000;stroke:#f9f9f9;stroke-width:2.51247px;stroke-linecap:butt;stroke-linejoin:miter;stroke-opacity:1"
     d="m 196.4423,12.760421 c -1.20674,6.927085 -1.01193,120.485629 -1.01193,120.485629 0,0 29.61092,3.41171 28.98437,0 -0.62655,-3.41171 0,-44.948885 0,-44.948885 h 25.0788 v 44.948885 h 32.80403 L 283.5023,12.760421 h -34.00876 v 39.097535 h -25.0788 V 12.760421 Z"
     id="path14298"
     sodipodi:nodetypes="ccscccccccccc" />
  <path
     id="path14322"
     style="fill:#800000;stroke:#f2f2f2;stroke-width:2.41197;stroke-linejoin:round;stroke-miterlimit:4;stroke-dasharray:none"
     d="m 334.15675,12.760421 c -22.96148,0.0013 -41.57509,25.881259 -41.57553,61.034433 4.4e-4,35.153176 18.61405,59.449876 41.57553,59.451196 22.96148,-0.002 41.57511,-24.29801 41.57555,-59.451196 -4.4e-4,-35.153188 -18.61407,-61.03312 -41.57555,-61.034433 z m -0.3292,35.491645 c 7.17055,4.08e-4 12.98345,11.770916 12.98393,26.291066 8.2e-4,14.522035 -5.81245,26.295488 -12.98393,26.295898 -7.17148,-3.8e-4 -12.98479,-11.773844 -12.98395,-26.295898 4.7e-4,-14.520169 5.8134,-26.290685 12.98395,-26.291066 z"
     sodipodi:nodetypes="cccccccccc" />
</svg>
